<svg width="24" height="24" viewBox="0 0 24 24" fill="none" xmlns="http://www.w3.org/2000/svg">
<path d="M18.1001 19.7097C18.4815 20.0968 19.1 20.0968 19.4815 19.7097C19.8629 19.3226 19.8629 18.695 19.4815 18.3079L13.3814 12.118L19.714 5.69208C20.0954 5.30499 20.0954 4.6774 19.714 4.29031C19.3325 3.90323 18.714 3.90323 18.3326 4.29031L12 10.7162L5.66749 4.29031C5.28603 3.90323 4.66756 3.90323 4.2861 4.29031C3.90463 4.6774 3.90463 5.30499 4.2861 5.69208L10.6186 12.118L4.51858 18.3079C4.13712 18.695 4.13712 19.3226 4.51858 19.7097C4.90005 20.0968 5.51852 20.0968 5.89998 19.7097L12 13.5197L18.1001 19.7097Z" fill="#18191B"/>
</svg>
